<?xml version="1.0" encoding="utf-8"?>
<!-- Generator: Adobe Illustrator 19.0.0, SVG Export Plug-In . SVG Version: 6.00 Build 0)  -->
<svg version="1.1" id="Capa_1" xmlns="http://www.w3.org/2000/svg" xmlns:xlink="http://www.w3.org/1999/xlink" x="0px" y="0px"
	 viewBox="128 -128 512 512" style="enable-background:new 128 -128 512 512;" xml:space="preserve">
<style type="text/css">
	.st0{fill:#CFD8DC;stroke:#231F20;stroke-width:16;stroke-miterlimit:10;}
	.st1{fill:#009AD8;stroke:#231F20;stroke-width:16;stroke-miterlimit:10;}
	.st2{fill:#01ABDF;stroke:#231F20;stroke-width:16;stroke-miterlimit:10;}
</style>
<path class="st0" d="M308.7,244.6l-41.3-41.3c-2.1-2.2-5.1-3.3-8.1-3c-3,0.2-5.7,1.7-7.5,4.1L138.2,359.3c-3.4,4.6-2.5,11,2.1,14.5
	c3.7,2.8,8.7,2.8,12.4,0l154.9-113.6c4.6-3.4,5.6-9.8,2.2-14.4C309.5,245.3,309.2,244.9,308.7,244.6L308.7,244.6z"/>
<path class="st1" d="M447.8,180.9L344.5,77.7c-17.4-13.5-39-20.4-61-19.3c-28.8-1-56.8,9.7-77.5,29.6c-16.8,16.8-15,42.7,5.2,77.1
	c19.1,29.9,41.6,57.5,67.1,82.1c41.1,41.1,93,83.7,130.8,83.7c10.7,0.3,20.9-3.9,28.4-11.4C480.5,276.5,469.7,202.9,447.8,180.9z"/>
<path class="st2" d="M525.6,89.7L422.3-13.6c-4-4-10.6-4-14.6,0L325.1,69c-13.5,13.5-12.4,43.4,31,86.9
	c28.3,28.3,50.9,38.6,66.9,38.6c7.4,0.3,14.6-2.5,20-7.6l82.6-82.6C529.6,100.3,529.6,93.7,525.6,89.7z"/>
<path class="st1" d="M631.1,62.1c-1.6-3.9-5.4-6.4-9.5-6.4c-22.4,0-71.6-24.2-106.3-59s-59-83.9-59-106.3c0-5.7-4.6-10.3-10.3-10.3
	c-2.7,0-5.4,1.1-7.3,3C396.5-74.7,383.3-2.7,449,63c25,27.8,60.2,44.2,97.5,45.6c31.1-0.4,60.7-13.1,82.4-35.3
	C631.8,70.4,632.7,65.9,631.1,62.1z"/>
<path class="st2" d="M566.9-54.9c-43.7-43.7-83.3-65-120.9-65c-5.7,0-10.3,4.6-10.3,10.3c0,30.8,29.2,85.1,65,120.9
	s90.1,65,120.9,65c5.7,0,10.3-4.6,10.3-10.3C631.9,28.4,610.6-11.2,566.9-54.9z"/>
</svg>
