<?xml version="1.0" encoding="utf-8"?>
<!-- Generator: Adobe Illustrator 19.0.0, SVG Export Plug-In . SVG Version: 6.00 Build 0)  -->
<svg version="1.1" id="Capa_1" xmlns="http://www.w3.org/2000/svg" xmlns:xlink="http://www.w3.org/1999/xlink" x="0px" y="0px"
	 viewBox="128 -128 512 512" style="enable-background:new 128 -128 512 512;" xml:space="preserve">
<style type="text/css">
	.st0{fill:#CFD8DC;stroke:#231F20;stroke-width:16;stroke-miterlimit:10;}
	.st1{fill:#009AD8;stroke:#231F20;stroke-width:16;stroke-miterlimit:10;}
	.st2{fill:#01ABDF;stroke:#231F20;stroke-width:16;stroke-miterlimit:10;}
	.st3{fill:#D15241;stroke:#231F20;stroke-width:10;stroke-miterlimit:10;}
</style>
<path class="st0" d="M308.7,236.5l-41.3-41.3c-2.1-2.2-5.1-3.3-8.1-3c-3,0.2-5.7,1.7-7.5,4.1L138.2,351.2c-3.4,4.6-2.5,11,2.1,14.5
	c3.7,2.8,8.7,2.8,12.4,0l154.9-113.6c4.6-3.4,5.6-9.8,2.2-14.4C309.5,237.2,309.2,236.8,308.7,236.5L308.7,236.5z"/>
<path class="st1" d="M447.8,172.8L344.5,69.6c-17.4-13.5-39-20.4-61-19.3c-28.8-1-56.8,9.7-77.5,29.6c-16.8,16.8-15,42.7,5.2,77.1
	c19.1,29.9,41.6,57.5,67.1,82.1c41.1,41.1,93,83.7,130.8,83.7c10.7,0.3,20.9-3.9,28.4-11.4C480.5,268.4,469.7,194.8,447.8,172.8z"/>
<path class="st2" d="M525.6,81.6L422.3-21.7c-4-4-10.6-4-14.6,0l-82.6,82.6c-13.5,13.5-12.4,43.4,31,86.9
	c28.3,28.3,50.9,38.6,66.9,38.6c7.4,0.3,14.6-2.5,20-7.6l82.6-82.6C529.6,92.2,529.6,85.6,525.6,81.6z"/>
<path class="st1" d="M631.1,54c-1.6-3.9-5.4-6.4-9.5-6.4c-22.4,0-71.6-24.2-106.3-59s-59-83.9-59-106.3c0-5.7-4.6-10.3-10.3-10.3
	c-2.7,0-5.4,1.1-7.3,3C396.5-82.8,383.3-10.8,449,54.9c25,27.8,60.2,44.2,97.5,45.6c31.1-0.4,60.7-13.1,82.4-35.3
	C631.8,62.3,632.7,57.8,631.1,54z"/>
<path class="st2" d="M566.9-63c-43.7-43.7-83.3-65-120.9-65c-5.7,0-10.3,4.6-10.3,10.3c0,30.8,29.2,85.1,65,120.9s90.1,65,120.9,65
	c5.7,0,10.3-4.6,10.3-10.3C631.9,20.3,610.6-19.3,566.9-63z"/>
<path class="st3" d="M521.7,147.4c-65.3,0-118.3,53-118.3,118.3S456.4,384,521.7,384S640,331,640,265.7S587,147.4,521.7,147.4z
	 M436.8,265.7c0-47,38.2-85.2,84.9-85.2c17.7,0,34.4,5.4,48,14.8l-118,118.3C442.2,300.1,436.8,283.3,436.8,265.7z M521.7,350.6
	c-17.7,0-34.4-5.4-48-14.8l118-118c9.5,13.6,14.8,30.3,14.8,48C606.6,312.7,568.7,350.6,521.7,350.6z"/>
</svg>
